# xmcd
#
# Track frame offsets:
#	150
#	15402
#	30507
#	47970
#	66097
#	82930
#	100725
#	115392
#	129995
#	145802
#	158277
#	174395
#	189967
#	208252
#
# Disc length: 3010 seconds
#
# Revision: 14
# Processed by: cddbd v1.5.2PL0 Copyright (c) Steve Scherf et al.
# Submitted via: EasyCDDAExtractor 15.3.0.1
#
DISCID=ab0bc00e
DTITLE=Mariah Carey - The Emancipation Of Mimi
DYEAR=2005
DGENRE=R&B/Pop
TTITLE0=It's Like That
TTITLE1=We Belong Together
TTITLE2=Shake It Off
TTITLE3=Mine Again
TTITLE4=Say Somethin' (Featuring Snoop Dogg)
TTITLE5=Stay The Night
TTITLE6=Get Your Number (Featuring Jermaine Dupri)
TTITLE7=One And Only (Featuring Twista)
TTITLE8=Circles
TTITLE9=Your Girl
TTITLE10=I Wish You Knew
TTITLE11=To The Floor (Featuring Nelly)
TTITLE12=Joy Ride
TTITLE13=Fly Like A Bird
EXTD=
EXTT0=
EXTT1=
EXTT2=
EXTT3=
EXTT4=
EXTT5=
EXTT6=
EXTT7=
EXTT8=
EXTT9=
EXTT10=
EXTT11=
EXTT12=
EXTT13=
PLAYORDER=
